<svg xmlns="http://www.w3.org/2000/svg" viewBox="0 0 512 512">
  <defs>
    <linearGradient id="bg" x1="0%" y1="0%" x2="100%" y2="100%">
      <stop offset="0%" style="stop-color:#2d5a3d"/>
      <stop offset="100%" style="stop-color:#1a3d27"/>
    </linearGradient>
  </defs>
  <rect width="512" height="512" rx="80" fill="url(#bg)"/>
  <g fill="white">
    <!-- Chef Hat -->
    <path d="M256 120c-40 0-72 25-80 58-5-2-10-3-16-3-27 0-49 19-49 42 0 20 16 37 38 41v82h214v-82c22-4 38-21 38-41 0-23-22-42-49-42-6 0-11 1-16 3-8-33-40-58-80-58z" opacity="0.95"/>
    <!-- Leaf -->
    <path d="M340 340c-20 35-60 50-100 40 10-20 25-35 45-45 20-10 40-10 55 5z" fill="#7cb342"/>
    <path d="M340 340c-5 10-15 18-25 25" stroke="#5d8c2e" stroke-width="3" fill="none"/>
  </g>
  <!-- Kuisto text hint -->
  <text x="256" y="450" text-anchor="middle" fill="white" font-family="Georgia, serif" font-size="36" font-weight="bold" opacity="0.9">Kuisto</text>
</svg>
